# xmcd CD database file
#
# Track frame offsets:
#	150
#	22732
#	46553
#	70431
#	91099
#	118286
#	139838
#	162956
#	181511
#	208220
#
# Disc length: 3139 seconds
#
# Revision: 0
# Processed by: cddbd v1.5.1PL0 Copyright (c) Steve Scherf et al.
# Submitted via: CDex 1.51
#
DISCID=7e0c410a
DTITLE=John Mayall's Bluesbreakers - Chicago Line
DYEAR=1900
DGENRE=Blues
TTITLE0=Chicago Line
TTITLE1=Gimme One More Day
TTITLE2=One Life To Live
TTITLE3=The Last Time
TTITLE4=Dream About The Blues
TTITLE5=Fascinatin' Lover
TTITLE6=Cold Blooded Mama
TTITLE7=The Dirty Dozens
TTITLE8=Tears Came Rollin' Down
TTITLE9=Life In The Jungle
EXTD=
EXTT0=
EXTT1=
EXTT2=
EXTT3=
EXTT4=
EXTT5=
EXTT6=
EXTT7=
EXTT8=
EXTT9=
PLAYORDER=
